<svg width="253" height="143" viewBox="0 0 253 143" fill="none" xmlns="http://www.w3.org/2000/svg">
<g clip-path="url(#clip0_1_737)">
<rect x="0.294128" y="0.529785" width="252.43" height="141.992" rx="3.94421" fill="#3563E9"/>
<path d="M-1.28357 118.856L-11.1441 95.1909H-1.28357H8.57696L18.4375 118.856L8.57696 142.521H-1.28357H-11.1441L-1.28357 118.856Z" fill="white" fill-opacity="0.06"/>
<path d="M34.6088 118.856L24.7482 95.1909H34.6088H44.4693L54.3298 118.856L44.4693 142.521H34.6088H24.7482L34.6088 118.856Z" fill="white" fill-opacity="0.06"/>
<path d="M70.5011 118.856L60.6406 95.1909H70.5011H80.3616L90.2222 118.856L80.3616 142.521H70.5011H60.6406L70.5011 118.856Z" fill="white" fill-opacity="0.06"/>
<path d="M106.393 118.856L96.5329 95.1909H106.393H116.254L126.114 118.856L116.254 142.521H106.393H96.5329L106.393 118.856Z" fill="white" fill-opacity="0.06"/>
<path d="M142.286 118.856L132.425 95.1909H142.286H152.146L162.007 118.856L152.146 142.521H142.286H132.425L142.286 118.856Z" fill="white" fill-opacity="0.06"/>
<path d="M178.178 118.856L168.318 95.1909H178.178H188.039L197.899 118.856L188.039 142.521H178.178H168.318L178.178 118.856Z" fill="white" fill-opacity="0.06"/>
<path d="M214.07 118.856L204.21 95.1909H214.07H223.931L233.791 118.856L223.931 142.521H214.07H204.21L214.07 118.856Z" fill="white" fill-opacity="0.06"/>
<path d="M249.963 118.856L240.102 95.1909H249.963H259.823L269.684 118.856L259.823 142.521H249.963H240.102L249.963 118.856Z" fill="white" fill-opacity="0.06"/>
<path d="M16.4654 71.5256L6.60486 47.8604H16.4654L26.3259 47.8604L36.1865 71.5256L26.3259 95.1909H16.4654H6.60486L16.4654 71.5256Z" fill="white" fill-opacity="0.06"/>
<path d="M52.3577 71.5256L42.4972 47.8604H52.3577L62.2183 47.8604L72.0788 71.5256L62.2183 95.1909H52.3577H42.4972L52.3577 71.5256Z" fill="white" fill-opacity="0.06"/>
<path d="M88.2501 71.5256L78.3895 47.8604H88.2501L98.1106 47.8604L107.971 71.5256L98.1106 95.1909H88.2501H78.3895L88.2501 71.5256Z" fill="white" fill-opacity="0.06"/>
<path d="M124.142 71.5256L114.282 47.8604H124.142L134.003 47.8604L143.863 71.5256L134.003 95.1909H124.142H114.282L124.142 71.5256Z" fill="white" fill-opacity="0.06"/>
<path d="M160.035 71.5256L150.174 47.8604H160.035L169.895 47.8604L179.756 71.5256L169.895 95.1909H160.035H150.174L160.035 71.5256Z" fill="white" fill-opacity="0.06"/>
<path d="M195.927 71.5256L186.067 47.8604H195.927L205.788 47.8604L215.648 71.5256L205.788 95.1909H195.927H186.067L195.927 71.5256Z" fill="white" fill-opacity="0.06"/>
<path d="M231.819 71.5256L221.959 47.8604H231.819L241.68 47.8604L251.54 71.5256L241.68 95.1909H231.819H221.959L231.819 71.5256Z" fill="white" fill-opacity="0.06"/>
<path d="M-1.67804 24.1951L-11.5386 0.529785L-1.67804 0.529785L8.18249 0.529785L18.043 24.1951L8.18249 47.8603L-1.67804 47.8603H-11.5386L-1.67804 24.1951Z" fill="white" fill-opacity="0.06"/>
<path d="M34.2144 24.1951L24.3538 0.529785L34.2144 0.529785L44.0749 0.529785L53.9354 24.1951L44.0749 47.8603L34.2144 47.8603H24.3538L34.2144 24.1951Z" fill="white" fill-opacity="0.06"/>
<path d="M70.1067 24.1951L60.2462 0.529785L70.1067 0.529785L79.9672 0.529785L89.8278 24.1951L79.9672 47.8603L70.1067 47.8603H60.2462L70.1067 24.1951Z" fill="white" fill-opacity="0.06"/>
<path d="M105.999 24.1951L96.1385 0.529785L105.999 0.529785L115.86 0.529785L125.72 24.1951L115.86 47.8603L105.999 47.8603H96.1385L105.999 24.1951Z" fill="white" fill-opacity="0.06"/>
<path d="M141.891 24.1951L132.031 0.529785L141.891 0.529785L151.752 0.529785L161.612 24.1951L151.752 47.8603L141.891 47.8603H132.031L141.891 24.1951Z" fill="white" fill-opacity="0.06"/>
<path d="M177.784 24.1951L167.923 0.529785L177.784 0.529785L187.644 0.529785L197.505 24.1951L187.644 47.8603L177.784 47.8603H167.923L177.784 24.1951Z" fill="white" fill-opacity="0.06"/>
<path d="M213.676 24.1951L203.816 0.529785L213.676 0.529785L223.537 0.529785L233.397 24.1951L223.537 47.8603L213.676 47.8603H203.816L213.676 24.1951Z" fill="white" fill-opacity="0.06"/>
<path d="M249.568 24.1951L239.708 0.529785L249.568 0.529785L259.429 0.529785L269.289 24.1951L259.429 47.8603L249.568 47.8603H239.708L249.568 24.1951Z" fill="white" fill-opacity="0.06"/>
</g>
<defs>
<clipPath id="clip0_1_737">
<rect x="0.294128" y="0.529785" width="252.43" height="141.992" rx="3.94421" fill="white"/>
</clipPath>
</defs>
</svg>
