<svg width="11" height="11" viewBox="0 0 11 11" fill="none" xmlns="http://www.w3.org/2000/svg">
<path d="M5.62939 1.72021C3.45219 1.72021 1.68518 3.48722 1.68518 5.66443C1.68518 7.84163 3.45219 9.60864 5.62939 9.60864C7.8066 9.60864 9.57361 7.84163 9.57361 5.66443C9.57361 3.48722 7.81054 1.72021 5.62939 1.72021Z" fill="#90A3BF"/>
<rect x="2.474" y="2.50928" width="6.31074" height="6.31074" rx="3.15537" fill="white"/>
<path d="M5.62941 3.29785C4.32308 3.29785 3.26288 4.35806 3.26288 5.66438C3.26288 6.9707 4.32308 8.03091 5.62941 8.03091C6.93573 8.03091 7.99593 6.9707 7.99593 5.66438C7.99593 4.35806 6.9381 3.29785 5.62941 3.29785Z" fill="#90A3BF"/>
<rect x="4.0517" y="4.08691" width="3.15537" height="3.15537" rx="1.57769" fill="white"/>
<rect x="5.23499" y="7.63672" width="0.788843" height="1.57769" fill="#90A3BF"/>
<rect x="7.60144" y="5.27002" width="1.57769" height="0.788843" fill="#90A3BF"/>
<rect x="2.07959" y="5.27002" width="1.57769" height="0.788843" fill="#90A3BF"/>
</svg>
