<svg width="11" height="11" viewBox="0 0 11 11" fill="none" xmlns="http://www.w3.org/2000/svg">
<path d="M9.6606 3.28516L7.29407 3.28516" stroke="#3D5278" stroke-width="0.591632" stroke-miterlimit="10" stroke-linecap="round" stroke-linejoin="round"/>
<path d="M3.34984 3.28516L1.77216 3.28516" stroke="#3D5278" stroke-width="0.591632" stroke-miterlimit="10" stroke-linecap="round" stroke-linejoin="round"/>
<path d="M4.92753 4.66525C5.68995 4.66525 6.30801 4.04719 6.30801 3.28477C6.30801 2.52236 5.68995 1.9043 4.92753 1.9043C4.16512 1.9043 3.54706 2.52236 3.54706 3.28477C3.54706 4.04719 4.16512 4.66525 4.92753 4.66525Z" stroke="#3D5278" stroke-width="0.591632" stroke-miterlimit="10" stroke-linecap="round" stroke-linejoin="round"/>
<path d="M9.66063 7.62354H8.08295" stroke="#3D5278" stroke-width="0.591632" stroke-miterlimit="10" stroke-linecap="round" stroke-linejoin="round"/>
<path d="M4.13868 7.62354H1.77216" stroke="#3D5278" stroke-width="0.591632" stroke-miterlimit="10" stroke-linecap="round" stroke-linejoin="round"/>
<path d="M6.50523 9.00411C7.26765 9.00411 7.8857 8.38605 7.8857 7.62364C7.8857 6.86122 7.26765 6.24316 6.50523 6.24316C5.74282 6.24316 5.12476 6.86122 5.12476 7.62364C5.12476 8.38605 5.74282 9.00411 6.50523 9.00411Z" stroke="#3D5278" stroke-width="0.591632" stroke-miterlimit="10" stroke-linecap="round" stroke-linejoin="round"/>
</svg>
