<svg width="11" height="11" viewBox="0 0 11 11" fill="none" xmlns="http://www.w3.org/2000/svg">
<path d="M9.52049 4.61181L8.73165 4.21739C8.58571 4.14639 8.40428 4.20161 8.33329 4.34755C8.25835 4.49743 8.31751 4.67492 8.46344 4.74591L9.09057 5.05751V6.94679L7.61149 6.95073V2.90397C7.61149 2.11512 7.08297 1.7207 6.42823 1.7207L3.27286 1.7207C2.61812 1.7207 2.0896 2.11512 2.0896 2.90397V9.31331H1.49796C1.33625 9.31331 1.20215 9.44742 1.20215 9.60913C1.20215 9.77084 1.33625 9.90495 1.49796 9.90495L8.20313 9.90495C8.36484 9.90495 8.49894 9.77084 8.49894 9.60913C8.49894 9.44742 8.36484 9.31331 8.20313 9.31331H7.61149V7.54236L9.38639 7.53842C9.55205 7.53842 9.68221 7.40431 9.68221 7.2426V4.87607C9.68221 4.76564 9.6191 4.66309 9.52049 4.61181ZM3.07565 3.64942C3.07565 3.10118 3.41091 2.90397 3.82111 2.90397L5.88393 2.90397C6.29018 2.90397 6.62544 3.10118 6.62544 3.64942V4.13456C6.62544 4.67886 6.29018 4.87607 5.87998 4.87607L3.82111 4.87607C3.41091 4.87607 3.07565 4.67886 3.07565 4.13062V3.64942ZM3.27286 5.76352H4.45612C4.61784 5.76352 4.75194 5.89762 4.75194 6.05934C4.75194 6.22105 4.61784 6.35515 4.45612 6.35515H3.27286C3.11115 6.35515 2.97704 6.22105 2.97704 6.05934C2.97704 5.89762 3.11115 5.76352 3.27286 5.76352Z" fill="#90A3BF"/>
</svg>
