<svg width="8" height="9" viewBox="0 0 8 9" fill="none" xmlns="http://www.w3.org/2000/svg">
<g clip-path="url(#clip0_1_2040)">
<path fill-rule="evenodd" clip-rule="evenodd" d="M3.78978 1.62132C3.81111 1.5537 3.85343 1.49464 3.91061 1.45271C3.96779 1.41079 4.03685 1.38818 4.10776 1.38818C4.17866 1.38818 4.24772 1.41079 4.3049 1.45271C4.36208 1.49464 4.40441 1.5537 4.42573 1.62132L4.99993 3.38716H6.85221C6.92565 3.38438 6.99798 3.40572 7.05814 3.44792C7.11831 3.49012 7.16301 3.55086 7.18541 3.62086C7.20781 3.69085 7.20668 3.76625 7.18218 3.83555C7.15769 3.90484 7.11119 3.96421 7.04978 4.00458L5.54636 5.09433L6.12056 6.86326C6.14327 6.93064 6.14384 7.00351 6.12219 7.07124C6.10055 7.13897 6.05781 7.19801 6.00023 7.23973C5.94265 7.28145 5.87324 7.30367 5.80214 7.30314C5.73104 7.30261 5.66197 7.27937 5.60501 7.2368L4.09849 6.1347L2.59507 7.22754C2.53811 7.27011 2.46904 7.29335 2.39793 7.29388C2.32683 7.2944 2.25742 7.27219 2.19984 7.23047C2.14226 7.18875 2.09953 7.12971 2.07788 7.06198C2.05623 6.99425 2.05681 6.92138 2.07952 6.854L2.65372 5.08507L1.15029 3.99532C1.08888 3.95494 1.04238 3.89558 1.01789 3.82628C0.9934 3.75699 0.992268 3.68159 1.01467 3.61159C1.03706 3.5416 1.08176 3.48086 1.14193 3.43866C1.2021 3.39646 1.27443 3.37512 1.34787 3.37789H3.20014L3.78978 1.62132Z" stroke="#C3D4E9" stroke-width="0.926137" stroke-linecap="round" stroke-linejoin="round"/>
</g>
<defs>
<clipPath id="clip0_1_2040">
<rect width="7.4091" height="7.4091" fill="white" transform="translate(0.393921 0.636719)"/>
</clipPath>
</defs>
</svg>
