<svg width="10" height="11" viewBox="0 0 10 11" fill="none" xmlns="http://www.w3.org/2000/svg">
<path d="M8.07711 6.43658L7.68269 5.78184C7.59986 5.6359 7.52492 5.35981 7.52492 5.19809V4.20021C7.52492 3.27332 6.98062 2.47264 6.19572 2.09794C5.99063 1.73507 5.61198 1.51025 5.17812 1.51025C4.7482 1.51025 4.36167 1.74296 4.15657 2.10977C3.38744 2.49236 2.85498 3.28515 2.85498 4.20021V5.19809C2.85498 5.35981 2.78004 5.6359 2.69721 5.77789L2.29884 6.43658C2.14107 6.70084 2.10558 6.99271 2.20418 7.26092C2.29884 7.52518 2.52366 7.73028 2.81553 7.82888C3.58071 8.0892 4.38533 8.21542 5.18995 8.21542C5.99457 8.21542 6.79919 8.0892 7.56437 7.83283C7.84046 7.74211 8.05345 7.53307 8.156 7.26092C8.25855 6.98877 8.23094 6.68901 8.07711 6.43658Z" fill="#3D5278"/>
<path d="M6.29827 8.61332C6.13262 9.07085 5.69481 9.39822 5.18206 9.39822C4.87047 9.39822 4.56282 9.272 4.34589 9.04718C4.21967 8.92886 4.12501 8.77109 4.06979 8.60938C4.12107 8.61726 4.17234 8.62121 4.22756 8.6291C4.31828 8.64093 4.41294 8.65276 4.5076 8.66065C4.73242 8.68037 4.96119 8.6922 5.18995 8.6922C5.41477 8.6922 5.63959 8.68037 5.86047 8.66065C5.9433 8.65276 6.02612 8.64882 6.10501 8.63698C6.16812 8.6291 6.23122 8.62121 6.29827 8.61332Z" fill="#3D5278"/>
</svg>
