<svg width="10" height="11" viewBox="0 0 10 11" fill="none" xmlns="http://www.w3.org/2000/svg">
<path d="M3.73282 1.7207C2.69943 1.7207 1.85931 2.56082 1.85931 3.5942C1.85931 4.60787 2.6521 5.42826 3.68548 5.46376C3.71704 5.45982 3.74859 5.45982 3.77226 5.46376C3.78015 5.46376 3.78409 5.46376 3.79198 5.46376C3.79592 5.46376 3.79592 5.46376 3.79987 5.46376C4.80959 5.42826 5.60237 4.60787 5.60632 3.5942C5.60632 2.56082 4.7662 1.7207 3.73282 1.7207Z" fill="#90A3BF"/>
<path d="M5.7365 6.51262C4.63607 5.779 2.84145 5.779 1.73313 6.51262C1.23221 6.84788 0.956116 7.30146 0.956116 7.7866C0.956116 8.27174 1.23221 8.72138 1.72918 9.05269C2.28137 9.42345 3.00711 9.60883 3.73284 9.60883C4.45858 9.60883 5.18431 9.42345 5.7365 9.05269C6.23347 8.71744 6.50957 8.2678 6.50957 7.77871C6.50562 7.29357 6.23347 6.84393 5.7365 6.51262Z" fill="#90A3BF"/>
<path d="M8.06755 3.8268C8.13066 4.59198 7.58636 5.2625 6.83301 5.35321C6.82907 5.35321 6.82907 5.35321 6.82512 5.35321H6.81329C6.78962 5.35321 6.76596 5.35321 6.74624 5.3611C6.36365 5.38082 6.01261 5.25855 5.74835 5.03373C6.15461 4.67087 6.38731 4.12656 6.33998 3.53493C6.31237 3.21545 6.20194 2.92358 6.03628 2.67509C6.18616 2.60015 6.35971 2.55282 6.53719 2.53705C7.31026 2.47 8.0005 3.04585 8.06755 3.8268Z" fill="#90A3BF"/>
<path d="M8.85636 7.47516C8.82481 7.85774 8.58026 8.18906 8.17007 8.41388C7.77564 8.63081 7.27867 8.73336 6.78565 8.72153C7.06963 8.46515 7.23529 8.14567 7.26684 7.80647C7.30628 7.31739 7.07358 6.84803 6.60816 6.47333C6.3439 6.26428 6.03625 6.09863 5.70099 5.97635C6.57266 5.72393 7.66915 5.89353 8.34361 6.43783C8.70648 6.7297 8.89186 7.09651 8.85636 7.47516Z" fill="#90A3BF"/>
</svg>
