<svg width="11" height="11" viewBox="0 0 11 11" fill="none" xmlns="http://www.w3.org/2000/svg">
<path d="M8.61983 4.35786C7.90593 4.35786 7.61406 3.853 7.96904 3.23376C8.17413 2.87483 8.05186 2.41731 7.69294 2.21221L7.01059 1.82173C6.699 1.63635 6.29669 1.74679 6.11131 2.05838L6.06792 2.13332C5.71295 2.75256 5.1292 2.75256 4.77028 2.13332L4.72689 2.05838C4.5494 1.74679 4.14709 1.63635 3.8355 1.82173L3.15315 2.21221C2.79423 2.41731 2.67196 2.87878 2.87706 3.2377C3.23598 3.853 2.94411 4.35786 2.2302 4.35786C1.82001 4.35786 1.4808 4.69312 1.4808 5.10726L1.4808 5.80144C1.4808 6.21164 1.81606 6.55084 2.2302 6.55084C2.94411 6.55084 3.23598 7.0557 2.87706 7.67494C2.67196 8.03386 2.79423 8.49139 3.15315 8.69649L3.8355 9.08697C4.14709 9.27235 4.5494 9.16191 4.73478 8.85032L4.77817 8.77538C5.13315 8.15614 5.71689 8.15614 6.07581 8.77538L6.1192 8.85032C6.30458 9.16191 6.70689 9.27235 7.01848 9.08697L7.70083 8.69649C8.05975 8.49139 8.18202 8.02992 7.97692 7.67494C7.618 7.0557 7.90987 6.55084 8.62377 6.55084C9.03397 6.55084 9.37317 6.21558 9.37317 5.80144V5.10726C9.36923 4.69706 9.03397 4.35786 8.61983 4.35786ZM5.42502 6.73622C4.719 6.73622 4.14315 6.16036 4.14315 5.45435C4.14315 4.74833 4.719 4.17248 5.42502 4.17248C6.13103 4.17248 6.70689 4.74833 6.70689 5.45435C6.70689 6.16036 6.13103 6.73622 5.42502 6.73622Z" fill="#3D5278"/>
</svg>
